{"title":"Yellow Sky (1949).avi","uid":5878845,"size":847140298,"categoryP":"video","categoryS":"movies","magnet":"?xt=urn:btih:2233f0b0d58cbfdb3b3906979db4964b03fe6cde&amp;dn=Yellow+Sky+%281949%29.avi&amp;tr=udp%3A%2F%2Ftracker.openbittorrent.com%3A80&amp;tr=udp%3A%2F%2Fopen.demonii.com%3A1337&amp;tr=udp%3A%2F%2Ftracker.coppersurfer.tk%3A6969&amp;tr=udp%3A%2F%2Fexodus.desync.com%3A6969","seeders":0,"leechers":1,"uploader":"beehjayd","files":1,"time":1286758606,"description":"A band of bank robbers on the run from a posse flee into the desert. Near death from lack of water they stumble into what appears to be a ghost town, only to discover an old prospector and his granddaughter living there. The robbers discover that the old man has been mining gold and set out to make a quick fortune by robbing the pair. Their plan runs foul when the gang leader, Stretch, falls for the granddaughter, which sets off a showdown between the entire gang.\n\nGregory Peck\t\tJames (Stretch) Dawson\nAnne Baxter\t\tConstance Mae (Mike)\nRichard Widmark\t        Dude\nJohn Russell\t\tLengthy\nHarry Morgan\t\tHalf Pint\n\n   Video #0\n      ID : 0\n      Format : AVC\n      Format/Info : Advanced Video Codec\n      Codec ID : H264\n      Duration : 1h 38mn\n      Bit rate : 1 002 Kbps\n      Width : 640 pixels\n      Height : 480 pixels\n      Display aspect ratio : 4:3\n      Frame rate : 29.970 fps\n      Resolution : 24 bits\n      Bits/(Pixel*Frame) : 0.109\n      Stream size : 708 MiB (88%)\n   Audio #1\n      ID : 1\n      Format : MPEG Audio\n      Format version : Version 1\n      Format profile : Layer 3\n      Codec ID : 55\n      Codec ID/Hint : MP3\n      Duration : 1h 38mn\n      Bit rate mode : Constant\n      Bit rate : 128 Kbps\n      Channel(s) : 2 channels\n      Sampling rate : 48.0 KHz\n      Resolution : 16 bits\n      Stream size : 90.4 MiB (11%)\n      Alignment : Aligned on interleaves\n      Interleave, duration : 24 ms (0.72 video frame)\n      Interleave, preload duration : 24 ms\n      Writing library : LAME3.98.2\n","torrent":{"xt":"urn:btih:2233f0b0d58cbfdb3b3906979db4964b03fe6cde","amp;dn":"Yellow+Sky+%281949%29.avi","amp;tr":["udp%3A%2F%2Ftracker.openbittorrent.com%3A80","udp%3A%2F%2Fopen.demonii.com%3A1337","udp%3A%2F%2Ftracker.coppersurfer.tk%3A6969","udp%3A%2F%2Fexodus.desync.com%3A6969"],"infoHash":"2233f0b0d58cbfdb3b3906979db4964b03fe6cde","infoHashBuffer":{"type":"Buffer","data":[34,51,240,176,213,140,191,219,59,57,6,151,157,180,150,75,3,254,108,222]},"announce":[],"urlList":[]}}